<svg id="Layer_1" data-name="Layer 1" xmlns="http://www.w3.org/2000/svg" viewBox="0 0 177.77 100"><defs><style>.cls-1,.cls-9{fill:#231f20;}.cls-2{fill:#a7a9ac;}.cls-3,.cls-4{fill:#bcbec0;}.cls-4{font-size:12px;}.cls-11,.cls-4,.cls-9{font-family:MyriadPro-Regular, Myriad Pro;}.cls-5{letter-spacing:-0.01em;}.cls-6{letter-spacing:0em;}.cls-7{letter-spacing:-0.01em;}.cls-8{letter-spacing:0em;}.cls-11,.cls-9{font-size:6px;}.cls-10{letter-spacing:0em;}.cls-11{fill:#fff;}.cls-12{letter-spacing:-0.01em;}.cls-13{letter-spacing:-0.01em;}.cls-14{letter-spacing:-0.01em;}</style></defs><title>wlarrows</title><path class="cls-1" d="M55.17,68.72a1.86,1.86,0,0,0,.39.28,2.37,2.37,0,0,0,1.34.42l-.58-2.82.58.06L57,50l0-16.61-.68,0,.68-2.7h-.22a2.06,2.06,0,0,0-1.17.37,1.47,1.47,0,0,1-.44.21l2.36-6.35,2.21,6.42a1.83,1.83,0,0,0-.39-.28A2.37,2.37,0,0,0,58,30.58l.58,2.82L58,33.34,57.89,50l0,16.61.68,0-.68,2.7h.22A2.06,2.06,0,0,0,59.31,69a1.48,1.48,0,0,1,.44-.21L57.44,75Z" transform="translate(0)"/><path class="cls-1" d="M57.43,25.14l2.14,6L59.33,31A2.41,2.41,0,0,0,58,30.53h-.13l0,.12.6,2.64h-.61v.1l0,16.61,0,16.61v.1h.61l-.6,2.64,0,.12H58A2.41,2.41,0,0,0,59.33,69l.24-.14-2.14,6-2.14-6,.24.14a2.41,2.41,0,0,0,1.37.43H57l0-.12-.6-2.64H57v-.1L57,50l0-16.61v-.1H56.4l.6-2.64,0-.12h-.13a2.41,2.41,0,0,0-1.37.43l-.24.14,2.14-6m0-.3-2.31,6.42c.43-.09.8-.63,1.78-.63l-.63,2.76h.63l0,16.61,0,16.61h-.63l.63,2.76c-1,0-1.35-.54-1.78-.63l2.31,6.42,2.31-6.42c-.43.09-.8.63-1.78.63l.63-2.76H58l0-16.61,0-16.61h.63L58,30.63c1,0,1.35.54,1.78.63l-2.31-6.42Z" transform="translate(0)"/><path class="cls-1" d="M44.18,36.7l6.42-2.21a1.84,1.84,0,0,0-.28.39,2.37,2.37,0,0,0-.42,1.35l2.82-.58-.06.58,16.66.07,55.73,0,0-.68,2.7.68a2.06,2.06,0,0,0-.36-1.39,1.47,1.47,0,0,1-.21-.44l6.35,2.36L127.26,39a2,2,0,0,1,.19-.36,2.36,2.36,0,0,0,.42-1.35l-2.82.58.06-.58L69.32,37.2l-16.61,0,0,.68L50,37.22a2.06,2.06,0,0,0,.36,1.39,1.47,1.47,0,0,1,.21.44Z" transform="translate(0)"/><path class="cls-1" d="M50.42,34.6c0,.08-.09.16-.14.24a2.41,2.41,0,0,0-.43,1.37v.13l.12,0,2.64-.6v.61h.1l16.61,0,55.73,0h.1v-.61l2.64.6.12,0v-.13a2.41,2.41,0,0,0-.43-1.37c-.05-.09-.1-.17-.14-.24l6,2.14-6,2.14c0-.08.09-.16.14-.24a2.41,2.41,0,0,0,.43-1.37v-.13l-.12,0-2.64.6v-.61h-.1l-55.73,0-16.61,0h-.1v.61L50,37.17l-.12,0v.13a2.41,2.41,0,0,0,.43,1.37c.05.09.1.17.14.24l-6-2.14,6-2.14m76.77-.17c.09.43.63.8.63,1.78l-2.76-.63v.63l-55.73,0-16.61,0v-.63L50,36.22c0-1,.54-1.35.63-1.78l-6.42,2.31,6.42,2.31c-.09-.43-.63-.8-.63-1.78l2.76.63v-.63l16.61,0,55.73,0v.63l2.76-.63c0,1-.54,1.35-.63,1.78l6.42-2.31-6.42-2.31Z" transform="translate(0)"/><path class="cls-2" d="M133.6,23.84h-8v1h8v-1Zm-10,0h-8v1h8v-1Zm-10,0h-8v1h8v-1Zm-10,0h-8v1h8v-1Zm-10,0h-8v1h8v-1Zm-10,0h-8v1h8v-1Zm-10,0h-8v1h8v-1Zm-10,0h-8v1h8v-1Zm-10,0h-8v1h8v-1Zm-9.44,1.56h-1v8h1v-8Zm0,10h-1v8h1v-8Zm0,10h-1v8h1v-8Zm0,10h-1v8h1v-8Zm0,10h-1v8h1v-8Zm8.25,9.75h-8v1h8v-1Zm10,0h-8v1h8v-1Zm10,0h-8v1h8v-1Zm10,0h-8v1h8v-1Zm10,0h-8v1h8v-1Zm10,0h-8v1h8v-1Zm10,0h-8v1h8v-1Zm10,0h-8v1h8v-1Zm10,0h-8v1h8v-1Zm2.18-8.82h-1v8h1v-8Zm0-10h-1v8h1v-8Zm0-10h-1v8h1v-8Zm0-10h-1v8h1v-8Zm0-10h-1v8h1v-8Z" transform="translate(0)"/><path class="cls-1" d="M148.75,16.33V83.67H29V16.33H148.75m7-7H22V90.67H155.75V9.33Z" transform="translate(0)"/><path class="cls-3" d="M175.77,2V98H2V2H175.77m2-2H0V100H177.77V0Z" transform="translate(0)"/><text class="cls-4" transform="translate(73.38 57.02)"><tspan class="cls-5">c</tspan><tspan x="5.3" y="0">o</tspan><tspan class="cls-6" x="11.89" y="0">n</tspan><tspan class="cls-7" x="18.5" y="0">t</tspan><tspan x="22.4" y="0">e</tspan><tspan class="cls-8" x="28.42" y="0">n</tspan><tspan x="35.03" y="0">t</tspan></text><text class="cls-9" transform="translate(113.6 44.38)">width</text><text class="cls-9" transform="translate(64.25 70.38)">heig<tspan class="cls-10" x="11.09" y="0">h</tspan><tspan x="14.4" y="0">t</tspan></text><text class="cls-9" transform="translate(79.92 22.08)">padding</text><text class="cls-11" transform="translate(81.88 15.01)">bo<tspan class="cls-12" x="6.71" y="0">r</tspan><tspan x="8.61" y="0">der</tspan></text><text class="cls-9" transform="translate(81.52 7.29)">ma<tspan class="cls-13" x="7.9" y="0">r</tspan><tspan class="cls-14" x="9.81" y="0">g</tspan><tspan x="13.13" y="0">in</tspan></text></svg>